HIERARCHY
ROOT Hips
{
 OFFSET 0.000000 0.000000 0.000000
 CHANNELS 6 Xposition Yposition Zposition Yrotation Xrotation Zrotation
 JOINT Chest
 {
  OFFSET 0.000000 9.585900 0.002600
  CHANNELS 3 Yrotation Xrotation Zrotation
  JOINT Chest2
  {
   OFFSET 0.000000 9.601200 -0.005300
   CHANNELS 3 Yrotation Xrotation Zrotation
   JOINT Chest3
   {
    OFFSET 0.000000 9.561800 0.000000
    CHANNELS 3 Yrotation Xrotation Zrotation
    JOINT Chest4
    {
     OFFSET 0.000000 9.552100 0.000000
     CHANNELS 3 Yrotation Xrotation Zrotation
     JOINT Neck
     {
      OFFSET 0.000000 14.453000 0.000000
      CHANNELS 3 Yrotation Xrotation Zrotation
      JOINT Head
      {
       OFFSET 0.000000 8.936500 -0.011300
       CHANNELS 3 Yrotation Xrotation Zrotation
       End Site
       {
        OFFSET 0.000000 17.073600 -0.006000
       }
      }
     }
     JOINT RightCollar
     {
      OFFSET -2.921100 9.558500 0.000000
      CHANNELS 3 Yrotation Xrotation Zrotation
      JOINT RightShoulder
      {
       OFFSET -13.519700 0.000000 0.000000
       CHANNELS 3 Yrotation Xrotation Zrotation
       JOINT RightElbow
       {
        OFFSET 0.000000 -29.696600 0.000000
        CHANNELS 3 Yrotation Xrotation Zrotation
        JOINT RightWrist
        {
         OFFSET 0.000000 -24.004700 0.000000
         CHANNELS 3 Yrotation Xrotation Zrotation
         End Site
         {
          OFFSET 0.000000 -17.728500 0.000000
         }
        }
       }
      }
     }
     JOINT LeftCollar
     {
      OFFSET 2.921100 9.558500 0.000000
      CHANNELS 3 Yrotation Xrotation Zrotation
      JOINT LeftShoulder
      {
       OFFSET 13.519700 0.000000 0.000000
       CHANNELS 3 Yrotation Xrotation Zrotation
       JOINT LeftElbow
       {
        OFFSET 0.000000 -29.696600 0.000000
        CHANNELS 3 Yrotation Xrotation Zrotation
        JOINT LeftWrist
        {
         OFFSET 0.000000 -24.004700 0.000000
         CHANNELS 3 Yrotation Xrotation Zrotation
         End Site
         {
          OFFSET 0.000000 -17.728500 0.000000
         }
        }
       }
      }
     }
    }
   }
  }
 }
 JOINT RightHip
 {
  OFFSET -7.771700 -0.012900 -0.001300
  CHANNELS 3 Yrotation Xrotation Zrotation
  JOINT RightKnee
  {
   OFFSET 0.000000 -40.869800 0.001200
   CHANNELS 3 Yrotation Xrotation Zrotation
   JOINT RightAnkle
   {
    OFFSET 0.000000 -39.717900 0.002100
    CHANNELS 3 Yrotation Xrotation Zrotation
    JOINT RightToe
    {
     OFFSET 0.000000 -4.965400 11.033500
     CHANNELS 3 Yrotation Xrotation Zrotation
     End Site
     {
      OFFSET 0.000000 -1.423100 5.872300
     }
    }
   }
  }
 }
 JOINT LeftHip
 {
  OFFSET 7.771700 -0.012900 -0.001300
  CHANNELS 3 Yrotation Xrotation Zrotation
  JOINT LeftKnee
  {
   OFFSET 0.000000 -40.869800 0.001200
   CHANNELS 3 Yrotation Xrotation Zrotation
   JOINT LeftAnkle
   {
    OFFSET 0.000000 -39.717900 0.002100
    CHANNELS 3 Yrotation Xrotation Zrotation
    JOINT LeftToe
    {
     OFFSET 0.000000 -4.965400 11.033500
     CHANNELS 3 Yrotation Xrotation Zrotation
     End Site
     {
      OFFSET 0.000000 -1.423100 5.872300
     }
    }
   }
  }
 }
}
MOTION
Frames: 16
Frame Time: 0.008333
0.000000 85.388000 0.000000 0.000000 -5.767877 0.000000 0.000000 11.653817 0.000000 0.000000 -5.885947 0.000000 0.000000 -0.000000 0.000000 0.000000 -0.000000 0.000000 0.000000 12.528835 0.000000 0.000000 0.711642 0.000000 0.000000 -0.000000 0.000000 0.000000 0.000000 -90.000000 0.000000 -2.309062 0.000000 0.000000 2.309062 0.000000 0.000000 -0.000000 0.000000 0.000000 -0.000000 90.000000 0.000000 -2.309062 0.000000 0.000000 2.309062 0.000000 0.000000 8.520406 0.000000 0.000000 1.905762 0.000000 -0.000000 -4.658285 0.000000 0.000000 -0.000000 0.000000 0.000000 8.520406 0.000000 0.000000 1.905762 0.000000 -0.000000 -4.658285 0.000000 0.000000 -0.000000 0.000000
-22.025464 49.051484 28.253808 174.082694 -26.215915 -0.302084 0.394975 11.185068 1.894770 0.073358 6.397378 1.478101 0.115802 7.996238 1.851106 0.075526 6.397343 1.478629 -0.885270 16.946596 -2.690025 -0.720073 -4.301714 -4.670528 3.561945 6.289581 -6.014398 0.595437 -20.245060 -8.474922 35.459562 -56.872419 -21.336145 10.985892 6.982493 -35.936697 -2.918701 3.006573 -2.045274 6.410763 -23.829484 -2.335780 -59.042538 -41.284678 32.625753 -6.740460 10.352656 37.707320 25.333769 -53.948390 -33.081996 -115.102556 69.719268 -104.473456 -1.719771 -6.242780 3.435713 0.221780 -0.898023 0.112813 -3.130523 -56.953022 13.286771 118.108125 81.704230 114.264786 -5.286411 -12.580498 -0.159468 0.227030 0.746422 0.101747
-22.025683 49.051759 28.253493 174.083789 -26.221145 -0.304022 0.389745 11.188560 1.893053 0.074122 6.398266 1.478287 0.119829 7.997272 1.853203 0.072859 6.398320 1.477385 -0.888309 16.954351 -2.689443 -0.720367 -4.298927 -4.670231 3.563791 6.289941 -6.014919 0.597607 -20.244016 -8.476883 35.464583 -56.870912 -21.336643 10.982037 6.979476 -35.942035 -2.917584 3.014518 -2.042405 6.416584 -23.833061 -2.339927 -59.050668 -41.284610 32.635854 -6.739200 10.350124 37.705605 25.324810 -53.941912 -33.073716 -115.093652 69.719832 -104.469267 -1.706186 -6.248711 3.447764 0.210609 -0.895337 0.102213 -3.131401 -56.948640 13.292359 118.124654 81.705210 114.281084 -5.295949 -12.579144 -0.161940 0.235329 0.744156 0.107348
-22.025729 49.051394 28.254411 174.090510 -26.218933 -0.310591 0.388812 11.182938 1.896594 0.071708 6.400518 1.480241 0.119433 7.996506 1.853545 0.072073 6.400543 1.478149 -0.891633 16.963371 -2.690031 -0.735034 -4.256809 -4.668507 3.563830 6.289472 -6.016257 0.602111 -20.238925 -8.478621 35.483093 -56.868036 -21.348876 10.969792 6.981955 -35.949837 -2.920086 3.015434 -2.043416 6.421041 -23.829274 -2.340853 -59.061992 -41.285300 32.644822 -6.734587 10.348465 37.707545 25.326264 -53.944595 -33.072507 -115.095118 69.712276 -104.469391 -1.707741 -6.245613 3.450773 0.210111 -0.899502 0.101557 -3.142033 -56.952826 13.301818 118.119567 81.707036 114.278319 -5.308434 -12.573452 -0.165364 0.240696 0.741482 0.111323
-22.026238 49.050931 28.255331 174.097051 -26.216748 -0.314510 0.384404 11.178875 1.896170 0.073357 6.400421 1.482337 0.117682 7.996191 1.854070 0.075205 6.397082 1.480580 -0.897342 16.975692 -2.690642 -0.738617 -4.250408 -4.670145 3.573317 6.285733 -6.013715 0.593218 -20.225727 -8.481547 35.487226 -56.866746 -21.354037 10.976186 6.983231 -35.956238 -2.930717 3.025930 -2.049867 6.430165 -23.820953 -2.340472 -59.079953 -41.297868 32.663745 -6.733793 10.352419 37.714889 25.320069 -53.947160 -33.070924 -115.095230 69.713228 -104.469382 -1.710125 -6.249050 3.448775 0.215092 -0.902341 0.099066 -3.147965 -56.956191 13.305202 118.116264 81.709913 114.273467 -5.312180 -12.569717 -0.161947 0.238348 0.740931 0.110236
-22.026705 49.050525 28.255932 174.101128 -26.216713 -0.317402 0.381675 11.177768 1.896558 0.075838 6.396583 1.480397 0.114710 8.000471 1.857097 0.078220 6.394057 1.479179 -0.902638 16.987876 -2.689433 -0.739454 -4.244641 -4.670507 3.580826 6.284296 -6.010869 0.600241 -20.214939 -8.487145 35.473591 -56.867867 -21.356636 10.977442 6.982223 -35.957960 -2.946022 3.036379 -2.056506 6.439693 -23.825123 -2.334382 -59.086611 -41.308478 32.673172 -6.735741 10.361404 37.713425 25.313229 -53.948376 -33.066884 -115.097513 69.714395 -104.470513 -1.711974 -6.254267 3.434029 0.215521 -0.900706 0.108524 -3.145524 -56.957677 13.299209 118.087205 81.706256 114.247506 -5.309180 -12.567777 -0.160256 0.236392 0.741485 0.108315
-22.026628 49.050057 28.256400 174.109257 -26.217536 -0.325069 0.376816 11.177184 1.900439 0.078267 6.395031 1.478765 0.116172 7.998783 1.859121 0.074576 6.396346 1.478133 -0.901508 17.011562 -2.689231 -0.746251 -4.189882 -4.661938 3.585521 6.283593 -6.008071 0.605152 -20.211689 -8.489720 35.461477 -56.864551 -21.354919 10.982658 6.982202 -35.960470 -2.951491 3.040075 -2.056260 6.443451 -23.823476 -2.333749 -59.086301 -41.314557 32.678340 -6.737253 10.366911 37.711948 25.297478 -53.950563 -33.056366 -115.100391 69.714580 -104.471565 -1.718300 -6.258148 3.422577 0.219869 -0.899530 0.115497 -3.157748 -56.957894 13.304537 118.079634 81.708462 114.241046 -5.304045 -12.566828 -0.162062 0.238087 0.743349 0.109072
-22.026158 49.049965 28.255927 174.121410 -26.224192 -0.335937 0.379022 11.178677 1.903913 0.069126 6.398280 1.481954 0.115427 7.998611 1.856988 0.073622 6.397570 1.480989 -0.902845 17.023327 -2.690339 -0.747949 -4.169699 -4.656509 3.586770 6.283421 -6.006928 0.615334 -20.213064 -8.491435 35.447672 -56.853633 -21.354826 10.983929 6.978856 -35.957229 -2.952773 3.043255 -2.056506 6.447209 -23.815954 -2.341192 -59.093806 -41.316695 32.693288 -6.734909 10.363644 37.716695 25.273057 -53.947477 -33.039589 -115.103300 69.715451 -104.473210 -1.724998 -6.257723 3.411855 0.223535 -0.902378 0.122303 -3.176112 -56.952621 13.313160 118.118256 81.714018 114.281142 -5.297280 -12.570146 -0.163288 0.240442 0.745486 0.109532
-22.026415 49.049748 28.255354 174.125240 -26.230297 -0.338280 0.382682 11.182998 1.903036 0.065680 6.397698 1.483556 0.115071 7.995021 1.854353 0.071174 6.396513 1.480075 -0.901998 17.038332 -2.686487 -0.748575 -4.167162 -4.653443 3.588204 6.283434 -5.997807 0.621668 -20.208373 -8.495288 35.440969 -56.848385 -21.354302 10.982393 6.976319 -35.953624 -2.952868 3.051754 -2.051801 6.448617 -23.814560 -2.342758 -59.095467 -41.317908 32.696929 -6.725664 10.363352 37.721316 25.264528 -53.942542 -33.032982 -115.104913 69.715712 -104.474192 -1.727521 -6.258841 3.404411 0.227051 -0.903117 0.124578 -3.192180 -56.949204 13.315929 118.162896 81.709258 114.322719 -5.280238 -12.569082 -0.163502 0.224948 0.740760 0.103972
-22.026372 49.049085 28.255532 174.122727 -26.231055 -0.339492 0.392005 11.181898 1.904161 0.063044 6.395614 1.481427 0.114275 7.992511 1.853639 0.070352 6.394342 1.479516 -0.901176 17.049353 -2.680122 -0.750096 -4.123129 -4.647172 3.587525 6.282511 -5.984799 0.628812 -20.202179 -8.501262 35.429917 -56.843462 -21.357782 10.981697 6.965013 -35.941764 -2.955505 3.061183 -2.045674 6.449780 -23.812667 -2.344176 -59.092123 -41.318904 32.697406 -6.728239 10.364771 37.719758 25.260329 -53.943958 -33.028556 -115.104925 69.724100 -104.470611 -1.735249 -6.258178 3.391739 0.225738 -0.903408 0.121419 -3.199763 -56.949359 13.322313 118.191542 81.707390 114.351178 -5.280308 -12.571870 -0.164249 0.218634 0.740861 0.101534
-22.026673 49.049033 28.254298 174.128064 -26.240607 -0.340648 0.390895 11.188933 1.902056 0.071155 6.389849 1.478317 0.112217 7.995791 1.856630 0.070620 6.392240 1.479292 -0.902734 17.067721 -2.675031 -0.755454 -4.089261 -4.637002 3.573629 6.285138 -5.972956 0.626806 -20.215325 -8.504864 35.418334 -56.830901 -21.338960 10.985204 6.957580 -35.934031 -2.967248 3.066442 -2.042917 6.455987 -23.809530 -2.343482 -59.115949 -41.324551 32.709849 -6.728662 10.377034 37.718197 25.247798 -53.934828 -33.023388 -115.116389 69.726723 -104.482794 -1.728405 -6.264453 3.388873 0.221310 -0.902323 0.117775 -3.204861 -56.940358 13.319782 118.201911 81.705547 114.360802 -5.274885 -12.570130 -0.169682 0.216707 0.738419 0.104186
-22.026590 49.048088 28.254879 174.138796 -26.238517 -0.346937 0.382318 11.185651 1.903144 0.071489 6.384876 1.476003 0.116288 7.988706 1.854534 0.069278 6.396663 1.479765 -0.899951 17.099875 -2.667587 -0.760237 -4.064545 -4.628800 3.569574 6.275533 -5.963619 0.628674 -20.201997 -8.508753 35.412033 -56.827916 -21.331282 10.970202 6.960752 -35.940480 -2.986660 3.077783 -2.040195 6.474135 -23.812795 -2.343654 -59.125851 -41.326467 32.716217 -6.735459 10.377290 37.709778 25.230566 -53.937769 -33.015195 -115.111317 69.725733 -104.479251 -1.729267 -6.273332 3.385640 0.224058 -0.895502 0.117094 -3.218801 -56.942305 13.324015 118.162363 81.704428 114.319461 -5.276803 -12.567859 -0.169025 0.223427 0.743155 0.102335
-22.025625 49.047198 28.255455 174.131182 -26.237727 -0.349711 0.390343 11.180592 1.906018 0.071759 6.385816 1.477831 0.116944 7.990059 1.855857 0.071233 6.378846 1.477814 -0.901698 17.131582 -2.662930 -0.759379 -3.984006 -4.616359 3.566660 6.283271 -5.957466 0.628687 -20.194809 -8.511927 35.393272 -56.823155 -21.311082 10.974029 6.956037 -35.943827 -2.997708 3.098687 -2.038373 6.472671 -23.814702 -2.343033 -59.119922 -41.325513 32.719806 -6.738180 10.377283 37.706193 25.231887 -53.945548 -33.006801 -115.109946 69.719940 -104.476023 -1.724910 -6.265915 3.371700 0.226815 -0.901214 0.123561 -3.220591 -56.944431 13.335330 118.175706 81.701315 114.333534 -5.276526 -12.568774 -0.170618 0.220828 0.743730 0.102730
-22.024833 49.046409 28.255857 174.128693 -26.238800 -0.352918 0.392685 11.170517 1.906087 0.072208 6.393214 1.480086 0.117485 7.984938 1.854847 0.065996 6.376471 1.480149 -0.899044 17.155209 -2.659442 -0.756369 -3.926802 -4.608310 3.571517 6.288803 -5.954733 0.622037 -20.197756 -8.513689 35.382286 -56.823507 -21.281319 10.969012 6.964068 -35.945477 -3.006280 3.112557 -2.034875 6.472900 -23.812615 -2.336615 -59.111636 -41.334943 32.723172 -6.743918 10.374445 37.708502 25.228671 -53.947014 -32.997359 -115.102945 69.719454 -104.469271 -1.717251 -6.266220 3.356683 0.224703 -0.900914 0.125120 -3.222900 -56.947175 13.342658 118.187935 81.695079 114.350159 -5.289513 -12.563415 -0.174189 0.226820 0.738142 0.105432
-22.024885 49.045626 28.256237 174.128146 -26.240451 -0.351166 0.393121 11.170579 1.904744 0.070719 6.386514 1.479765 0.114382 7.982645 1.853962 0.061569 6.376236 1.480856 -0.895325 17.179649 -2.655724 -0.751505 -3.881297 -4.602275 3.579985 6.294594 -5.951960 0.613547 -20.201520 -8.513063 35.386249 -56.818062 -21.271720 10.962502 6.957492 -35.938934 -3.007069 3.121031 -2.034717 6.478316 -23.808235 -2.335288 -59.112963 -41.339850 32.724866 -6.744783 10.374236 37.711493 25.232575 -53.946548 -32.999078 -115.106080 69.720707 -104.471360 -1.719594 -6.264825 3.350877 0.227270 -0.902113 0.123236 -3.214404 -56.947781 13.332752 118.189076 81.691871 114.354746 -5.287821 -12.562779 -0.172708 0.220359 0.737869 0.102980
-22.024450 49.044862 28.256738 174.130377 -26.242679 -0.352720 0.387061 11.166779 1.903716 0.068645 6.385614 1.480126 0.111916 7.981409 1.854171 0.062605 6.374047 1.479948 -0.891244 17.197653 -2.654563 -0.748160 -3.826202 -4.591093 3.585486 6.300813 -5.944332 0.614549 -20.201457 -8.520916 35.389171 -56.816223 -21.269565 10.957828 6.952670 -35.936456 -3.005452 3.130242 -2.035452 6.478543 -23.804330 -2.333442 -59.104525 -41.353715 32.725917 -6.754771 10.377837 37.707529 25.228305 -53.948602 -32.994258 -115.109941 69.720173 -104.476619 -1.721371 -6.262308 3.344850 0.226807 -0.905466 0.121829 -3.218044 -56.947148 13.334566 118.211556 81.696473 114.376814 -5.285442 -12.562133 -0.171873 0.216446 0.738450 0.101713
